<svg class="icon" viewBox="0 0 1439 1024" version="1.1" xmlns="http://www.w3.org/2000/svg" width="16" height="16"><path d="M633.70407 635.198655q-11.956681 0-23.166069-7.472926T594.844858 608.296124q-4.483755-11.956681-2.241878-24.660654T603.812368 561.963986l260.057803-260.057802q13.451266-13.451266 31.386286-13.451265t29.891701 12.703973q11.956681 12.703973 11.956681 30.638994t-11.956681 29.891701L665.090356 621.747389q-13.451266 13.451266-31.386286 13.451266z m261.552387 0q-17.935021 0-31.386286-13.451266L603.812368 361.689587q-11.956681-11.956681-11.95668-29.891701t12.703973-30.638994q12.703973-12.703973 29.891701-12.703973t30.638994 13.451265l260.057802 260.057802q8.96751 8.96751 11.956681 21.671484t-2.241878 24.660654q-5.231048 11.956681-16.440435 19.429605t-23.166069 7.472926z m263.046972 288.454918H419.978405q-32.880872 0-61.277988-13.451265t-49.321307-37.364627L23.913361 529.083115q-23.913361-29.891701-23.913361-66.509036T19.429606 399.054214l289.949504-346.743737q19.429606-25.407946 48.574014-38.859211t62.025281-13.451266h738.325024q58.288818 0 99.389908 41.101089T1298.794426 140.490997v642.67158q0 58.288818-41.101089 99.389907T1158.303429 923.653573zM375.140853 106.11554L88.180519 451.364691q-2.98917 4.483755-2.98917 11.209388t4.483755 12.703973l285.465749 342.259981q17.935021 20.924191 44.837552 20.924191h738.325024q22.418776 0 38.11192-16.440435t15.693143-38.859212V140.490997q0-22.418776-15.693143-38.859212T1158.303429 85.191349H419.978405q-26.902531 0-44.837552 20.924191z" ></path></svg>